<?xml version="1.0" encoding="utf-8"?>
<!-- Generator: Adobe Illustrator 19.2.1, SVG Export Plug-In . SVG Version: 6.00 Build 0)  -->
<svg version="1.1" id="Layer_1" xmlns="http://www.w3.org/2000/svg" xmlns:xlink="http://www.w3.org/1999/xlink" x="0px" y="0px"
	 viewBox="0 0 229.6 250.6" style="enable-background:new 0 0 229.6 250.6;" xml:space="preserve">
<style type="text/css">
	.st0{fill:#BDD85F;}
</style>
<g id="fJutpj_1_">
	<g id="_x32_0SHOq_1_">
		<g id="i0Xncm_1_">
			<g>
				<path class="st0" d="M229.5,124.5c0,13,0.2,25.9,0,38.9c-0.3,17.2-7.2,31.2-22,40.2c-23.1,14.1-46.5,27.7-70.1,41
					c-14.9,8.4-30.5,8-45.5-0.4c-22.7-12.7-45.2-25.6-67.7-38.7c-15.7-9.1-23.6-23.1-23.9-41.3c-0.2-15.7-0.1-31.4-0.2-47.2
					c0-9.7-0.3-19.4-0.3-29c0.1-18.9,8.2-33.2,24.5-42.8C46.3,32.4,68.1,19.6,90,7c16-9.2,32.2-9.3,48.3-0.2
					c22.2,12.5,44.3,25.1,66.3,37.9c16.1,9.3,24.2,23.4,24.4,42c0.1,12.6,0,25.2,0,37.8C229.2,124.5,229.4,124.5,229.5,124.5z
					 M139.2,180.2c0.7-0.5,1.2-0.9,1.6-1.3c9.4-8.8,18.7-17.7,28.1-26.5c1.2-1.1,1.2-1.7,0.1-2.9c-22.1-23.4-44.2-46.8-66.3-70.3
					c-1.1-1.2-1.7-1.3-2.9-0.1C90.4,88,81,96.8,71.6,105.5c-1.3,1.2-1.1,1.8,0,2.9c2.7,2.7,5.3,5.5,7.9,8.3
					c19.4,20.5,38.7,41.1,58.1,61.6C138.1,178.9,138.6,179.5,139.2,180.2z M76.9,134.4c1.8,1.9,3.6,3.9,5.5,5.8
					c1.5,1.6,3.1,3.2,4.8,4.6c1.5,1.2,3.2,0.9,4.5-0.6c1.3-1.5-0.2-2.4-1-3.3c-4.9-5.2-9.8-10.3-14.6-15.6c-1.3-1.4-2.1-1.7-3.7-0.2
					c-10.7,10.4-21.5,20.7-32.2,31.1c-3.1,3-3.1,5.2,0,8.4c11.3,11.8,22.7,23.5,34,35.3c3.5,3.6,5.5,3.7,9,0.3
					c9.5-9.1,18.9-18.2,28.4-27.4c1.6-1.5,4.2-3,4.1-4.9c-0.1-1.6-2.7-3.1-4-4.7c-1.3-1.6-2.1-1.6-3.6-0.1
					c-8,7.8-16.1,15.6-24.2,23.3c-3.2,3.1-6.3,3.4-9.1,0.5c-7.3-7.4-14.5-14.9-21.6-22.5c-1.4-1.5-2-3.4-1.3-5.4
					c0.5-1.4,1.1-2.2,2.6-0.7c2.7,2.7,5.6,5.2,8.4,7.8c2.1,2,4,2.2,5.6,0.6c1.4-1.4,1.2-3.5-0.6-5.4c-2.5-2.7-5-5.3-7.6-7.9
					c-1.2-1.2-1.6-2-0.2-3.4c1.6-1.6,2.1-0.1,2.8,0.7c2.7,2.7,5.2,5.6,8,8.2c2.3,2.2,5.1,1.7,6.1-0.9c0.7-1.8-0.3-3.1-1.4-4.3
					c-2.6-2.8-5.3-5.5-8-8.2c-0.8-0.8-1.2-1.3-0.2-2.4c1.1-1.1,1.6-0.4,2.3,0.3c3,2.7,6,5.6,9.1,8.2c2.2,1.9,4.3,1.7,5.5-0.3
					c1.1-1.9,0.3-3.5-0.9-4.8c-2.2-2.4-4.5-4.8-6.8-7.1C74,136.7,74,136.7,76.9,134.4z M151.3,50.9c-1.3,0-2.4,0.6-3.3,1.4
					C138,62,128,71.6,118,81.2c-0.6,0.6-1,1.1-0.2,2c7.5,7.9,14.9,15.8,22.4,23.6c1.1,1.2,2.6,1.1,3.9,0.1c1.3-1,1.7-2.4,1.1-4
					c-0.4-1-1.2-1.8-1.9-2.5c-4.5-4.7-9-9.4-13.6-13.9c-1.2-1.3-1.5-2-0.1-3.3c5.6-5.2,11-10.6,16.6-15.8c3.8-3.6,6.3-3.6,10,0.2
					c6.6,6.7,13.1,13.5,19.6,20.3c3.7,3.8,3.6,6.5-0.2,10.2c-6.1,6-12.4,11.7-18.1,18.1c-4.4,5-4.4,4.9,0.3,9.6
					c0.9,0.9,1.5,1.2,2.5,0.2c9.9-9.7,19.9-19.2,29.9-28.9c2.8-2.7,2.8-4.8,0.1-7.6C178.7,77.1,167,65,155.3,52.8
					C154.2,51.7,153,50.9,151.3,50.9z M69.6,48.3c-2.1-0.1-4.2,0.6-5.8,2.1C57.5,56.2,51.2,62,45.1,68.1c-3.5,3.5-3.4,8-0.2,11.7
					c3.2,3.7,6.6,7.2,9.8,10.9c0.9,1,1.4,1.2,2.5,0.2c9.5-9,19.1-18,28.7-27c0.9-0.8,1-1.4,0.1-2.3c-3.6-3.6-7.2-7.3-10.8-11
					C73.7,49,71.9,48.2,69.6,48.3z M174.2,155.3c-10.4,9.8-20.5,19.4-30.9,29.1c2.4,0.9,4.2,1.7,6.1,2.4c10,3.8,20,7.6,30,11.4
					c1.9,0.7,3.6,0.7,5.2-0.7c1.6-1.4,1.7-3.2,1.2-5.1c-0.5-1.8-1.1-3.6-1.6-5.3C181,176.6,177.7,166.2,174.2,155.3z M98.1,74.6
					c-0.5-0.6-0.8-1-1.1-1.3c-1-1-1.9-2.1-2.9-3.1c-4-4.3-4-4.3-8.3-0.3C77.4,77.8,69,85.7,60.6,93.5c-1.2,1.1-1.5,1.8-0.2,3.1
					c1.9,1.7,3.6,3.7,5.3,5.6c0.8,0.9,1.4,1.3,2.5,0.2c9.4-9,19-17.9,28.4-26.9C97.1,75.2,97.6,74.9,98.1,74.6z M166.4,87.2
					c0-6.5-5.1-11.9-11.5-12c-6.5-0.1-12,5.3-12.1,11.7c0,6.5,5.1,11.8,11.5,11.8C161,98.8,166.3,93.7,166.4,87.2z"/>
				<path class="st0" d="M155.5,149.9c-0.7,1.9-2.2,3.1-3.8,4c-1.6,0.9-2.7-0.3-3.7-1.3c-7.5-7.8-14.9-15.7-22.3-23.6
					c-4.9-5.2-9.9-10.5-14.8-15.7c-2.2-2.3-2.1-3.5,0-5.6c2.2-2.1,3.4-2.2,5.6,0.1c12.6,13.3,25.1,26.6,37.6,39.9
					C154.7,148.3,155.3,149,155.5,149.9z"/>
				<path class="st0" d="M100.4,91.6c0.5,0.2,1.1,0.5,1.7,0.9c0.8,0.7,1.5,1.5,2.3,2.3c2.9,3.2,2.6,5-1.3,7.1
					c-1.1,0.6-2.1,0.6-2.9-0.2c-1.3-1.2-2.5-2.5-3.6-3.9C95.2,96,97.8,91.8,100.4,91.6z"/>
				<path class="st0" d="M75.1,62.3c-0.4,0.4-0.8,0.8-1.1,1.2C68.5,68.7,63,73.8,57.6,79c-0.9,0.9-1.4,0.8-2.3-0.1
					c-4.9-4.7-4.9-4.7,0-9.3c4.1-3.8,8.3-7.5,12.2-11.5c1.7-1.8,2.7-1.5,4,0.2c0.8,1.1,1.8,1.9,2.7,2.9
					C74.5,61.6,74.8,61.9,75.1,62.3z"/>
				<path class="st0" d="M153.5,182.4c6.1-5.8,11.9-11.2,18.1-17c1.5,4.8,2.9,9.2,4.3,13.6c0.3,0.8,0,1.6-0.6,2.2
					c-0.5,0.5-1.2,0.9-1.5,1.5c-3.6,5.2-7.9,5.4-13.1,2.5C158.5,184,156.2,183.4,153.5,182.4z"/>
			</g>
		</g>
	</g>
</g>
</svg>
