<?xml version="1.0" encoding="utf-8"?>
<!-- Generator: Adobe Illustrator 19.2.1, SVG Export Plug-In . SVG Version: 6.00 Build 0)  -->
<svg version="1.1" id="Layer_1" xmlns="http://www.w3.org/2000/svg" xmlns:xlink="http://www.w3.org/1999/xlink" x="0px" y="0px"
	 viewBox="0 0 285.2 335.4" style="enable-background:new 0 0 285.2 335.4;" xml:space="preserve">
<style type="text/css">
	.st0{fill:#FFFFFF;}
</style>
<g id="EA7FRw_1_">
	<g>
		<path class="st0" d="M0.3,0c94.9,0,189.8,0,285,0c0,1.4,0,2.7,0,4c-2.4,1.4-5,2.6-7.1,4.3c-4.1,3.4-6,8.1-7,13.2
			c-0.3,1.8-0.7,3.6-1.2,5.4c-1.1,3.6-3.8,5.7-7.2,6.9c-2.3,0.8-4.3-0.1-6-1.5c-3.1-2.3-4.4-5.6-4.9-9.2c-0.5-3.6-1.5-7-4.1-9.7
			c-3.7-3.7-8.3-3.4-10.9,1c-1.5,2.5-2.5,5.3-3.2,8.1c-2,8.1-3.1,16.4-3.4,24.8c-0.6,21-1.4,42.1-1.9,63.1
			c-0.4,15.8-0.4,31.7-0.3,47.5c0,7.8,0.4,15.6,1,23.4c0.9,13.6,2.7,27.2,5.5,40.5c1.9,9,3.8,18,5.8,27c1.5,6.7,0.4,12.9-2.9,18.8
			c-5.1,9.1-18.4,10.2-26.1,2.3c-5.8-6-7-13.1-5.3-20.8c1.7-7.6,4-15.1,6.3-22.5c3.9-12.3,6.4-24.9,7.6-37.8c1.4-15.3,3-30.7,3.6-46
			c0.7-16.6,0.5-33.2,0.5-49.8c0-9.7-0.2-19.3-0.5-29c-0.4-13.8-1.6-27.5-3.5-41.1c-0.5-3.7-1.8-6.9-4.6-9.4
			c-2.1-1.8-3.1-1.6-4.7,0.6c-5,6.6-7.1,14.3-7.7,22.4c-0.6,9.4,1.6,18.3,4.1,27.2c2.1,7.9,4.2,15.9,5.8,24
			c1.7,8.1-2.6,14.8-10.2,16.6c-7.5,1.7-15-3.1-17.2-10.8c-1.2-4.4-0.6-8.6,0.7-12.8c1.9-6.1,3.9-12.2,5.5-18.4c3-12,3.2-24-0.4-36
			c-1.8-5.9-5.2-10.6-9.7-14.8c-2.7-2.5-5.7-2.9-9-2c-8.1,2.4-13.9,7.2-16.6,15.4c-1.9,5.8-2.8,11.8-3,17.9
			c-0.2,4.6-0.1,9.1-0.2,13.7c0,2.6-0.6,4.9-2.7,6.7c-1.9,1.6-4,2-6.3,1c-2.3-1.1-4-2.6-3.9-5.4c0.1-2.2,0.1-4.3,0.1-6.5
			c-0.2-6.7-0.4-13.4-0.7-20.2c-0.5-8.7-5.8-15.8-14.1-18.4c-3.2-1-6.5-1.6-9.8-1.8c-10.1-0.7-19.9,0.5-29.4,4.1
			c-7.9,3-13.8,8-17.4,15.7C62,45.3,58,59.2,57.5,73.9c-0.7,22.3-0.7,44.7-1.5,67c-0.4,9.8,1.6,19.1,2.7,28.7
			c0.6,5.3,1.2,10.6,2,15.8c0.6,4.1,1.8,8,2.5,12.1c0.5,2.7,1,5.6,0.8,8.3c-0.3,4-3.1,6.5-6.8,7.5c-3.5,1-7.1,0.4-9.3-2.9
			c-1.2-1.8-1.9-4.2-2-6.3c-0.1-4.3,0.3-8.7,0.7-13c0.5-6.4,1.3-12.7,1.7-19.1c0.9-12.5,2.2-25.1,2.5-37.6
			c0.6-17.8,0.8-35.6,0.6-53.4c-0.1-10.4-1.2-20.8-2.2-31.1c-0.9-9.6-5.2-17.8-12.1-24.6C28.3,16.4,17.8,9.7,6.5,4.2
			C4.3,3.1,2.2,1.9,0,0.8C0.1,0.5,0.2,0.3,0.3,0z"/>
		<path class="st0" d="M143.7,231c1.8,3,2.1,5.6,2.2,8.2c0.8,11.4,1.4,22.9,2.2,34.4c0.8,10.4,2.6,20.6,4.6,30.8
			c1.3,7,1.9,14.1,2.5,21.3c0.4,5.6-3.9,9.7-9.5,9.7c-5.6,0-9.5-3.6-9.3-9.4c0.2-5.7,1-11.4,1.6-17.1c0.9-8.8,1.8-17.7,2.9-26.5
			c2.2-16.4,2-32.8,2.2-49.3C143.2,232.7,143.4,232.2,143.7,231z"/>
	</g>
</g>
</svg>
